<?xml version="1.0" encoding="iso-8859-1"?>
<!-- Generator: Adobe Illustrator 19.0.0, SVG Export Plug-In . SVG Version: 6.00 Build 0)  -->
<svg version="1.1" id="Layer_1" xmlns="http://www.w3.org/2000/svg" xmlns:xlink="http://www.w3.org/1999/xlink" x="0px" y="0px"
	 viewBox="0 0 512 512" style="enable-background:new 0 0 512 512;" xml:space="preserve">
<path style="fill:#F8F8F9;" d="M136.733,110.504c0,0,24.835-92.925,41.707-93.008c16.872-0.087,42.651,92.58,42.651,92.58"/>
<g>
	<path style="fill:#EDEDED;" d="M290.909,110.504c0,0,24.835-92.925,41.707-93.008c16.872-0.087,42.651,92.581,42.651,92.581"/>
	<path style="fill:#EDEDED;" d="M349.091,98.868H162.909c-38.559,0-69.818,31.259-69.818,69.818V285.05
		c0,24.09,14.641,44.76,35.51,53.599l254.798,0.002c20.869-8.839,35.511-29.51,35.511-53.601V168.686
		C418.909,130.125,387.65,98.868,349.091,98.868z"/>
</g>
<path style="fill:#D8D8DA;" d="M349.091,98.868H256V338.65l127.397,0.001c20.87-8.839,35.512-29.51,35.512-53.601V168.686
	C418.909,130.125,387.65,98.868,349.091,98.868z"/>
<path style="fill:#797781;" d="M302.545,308.322v-81.455c0-32.133,26.049-58.182,58.182-58.182h58.182v116.365
	c0,24.091-14.642,44.763-35.512,53.601"/>
<path style="fill:#F8F8F9;" d="M209.455,308.322v-81.455c0-32.133-26.049-58.182-58.182-58.182H93.091V285.05
	c0,24.09,14.641,44.76,35.51,53.599"/>
<path style="fill:#F9D9EC;" d="M395.636,424.686c0,38.559-31.259,69.818-69.818,69.818H186.182
	c-38.559,0-69.818-31.259-69.818-69.818v-46.545c0-38.559,31.259-69.818,69.818-69.818h139.636
	c38.559,0,69.818,31.259,69.818,69.818V424.686z"/>
<path style="fill:#EDCCE4;" d="M325.818,308.322H256v186.182h69.818c38.559,0,69.818-31.259,69.818-69.818v-46.545
	C395.636,339.58,364.378,308.322,325.818,308.322z"/>
<rect x="168.727" y="378.135" style="fill:#58575D;" width="34.909" height="46.545"/>
<rect x="308.364" y="378.135" style="fill:#454449;" width="34.909" height="46.545"/>
<path style="fill:#58575D;" d="M145.455,255.959h-0.002c-12.831,0-23.27-10.44-23.27-23.273
	c0.005-12.835,10.445-23.273,23.273-23.273c12.833,0,23.273,10.44,23.273,23.273S158.287,255.959,145.455,255.959z"/>
<path style="fill:#454449;" d="M366.545,255.959h-0.002c-12.831,0-23.27-10.44-23.27-23.273
	c0.005-12.835,10.445-23.273,23.273-23.273c12.833,0,23.273,10.44,23.273,23.273S379.378,255.959,366.545,255.959z"/>
<path style="fill:#797781;" d="M477.091,75.595c-32.133,0-58.182,26.049-58.182,58.182v34.909h34.909
	c32.133,0,58.182-26.049,58.182-58.182V75.595H477.091z"/>
<path style="fill:#EDEDED;" d="M0,110.504c0,32.133,26.049,58.182,58.182,58.182h34.909v-34.909
	c0-32.133-26.049-58.182-58.182-58.182H0V110.504z"/>
<g>
</g>
<g>
</g>
<g>
</g>
<g>
</g>
<g>
</g>
<g>
</g>
<g>
</g>
<g>
</g>
<g>
</g>
<g>
</g>
<g>
</g>
<g>
</g>
<g>
</g>
<g>
</g>
<g>
</g>
</svg>
